<svg version="1.1" viewBox="0.0 0.0 945.8582677165355 161.62992125984252" fill="none" stroke="none" stroke-linecap="square" stroke-miterlimit="10" xmlns:xlink="http://www.w3.org/1999/xlink" xmlns="http://www.w3.org/2000/svg"><clipPath id="p.0"><path d="m0 0l945.8583 0l0 161.62993l-945.8583 0l0 -161.62993z" clip-rule="nonzero"/></clipPath><g clip-path="url(#p.0)"><path fill="#000000" fill-opacity="0.0" d="m0 0l945.8583 0l0 161.62993l-945.8583 0z" fill-rule="evenodd"/><path fill="#000000" fill-opacity="0.0" d="m0 0l945.8583 0l0 161.6378l-945.8583 0z" fill-rule="evenodd"/><path fill="#ffffff" d="m91.563934 50.44062q1.765625 0 2.921875 1.078125q1.15625 1.078125 1.15625 2.765625q0 1.671875 -1.15625 2.75q-1.15625 1.078125 -2.921875 1.078125l-22.953125 0l0 23.53125q0 1.75 -1.203125 2.953125q-1.203125 1.203125 -2.953125 1.203125q-1.765625 0 -2.96875 -1.203125q-1.203125 -1.203125 -1.203125 -2.953125l0 -54.15625q0 -1.84375 1.203125 -3.0q1.203125 -1.171875 2.96875 -1.171875l36.15625 0q1.84375 0 2.953125 1.09375q1.125 1.078125 1.125 2.828125q0 1.6875 -1.125 2.734375q-1.109375 1.03125 -2.953125 1.03125l-32.0 0l0 19.4375l22.953125 0zm59.04683 -8.484375q1.84375 0 2.953125 1.125q1.125 1.125 1.125 2.953125l0 35.6875q0 1.765625 -1.125 2.921875q-1.109375 1.15625 -2.953125 1.15625q-1.765625 0 -2.921875 -1.15625q-1.15625 -1.15625 -1.15625 -2.921875l0 -0.875q-2.5625 2.546875 -6.09375 3.953125q-3.515625 1.40625 -7.515625 1.40625q-5.515625 0 -9.921875 -2.40625q-4.390625 -2.40625 -6.875 -7.0q-2.484375 -4.59375 -2.484375 -11.078125l0 -19.6875q0 -1.75 1.15625 -2.90625q1.171875 -1.171875 2.9375 -1.171875q1.75 0 2.90625 1.171875q1.171875 1.15625 1.171875 2.90625l0 19.6875q0 6.484375 3.46875 9.8125q3.484375 3.3125 9.25 3.3125q3.359375 0 6.109375 -1.359375q2.765625 -1.375 4.328125 -3.6875q1.5625 -2.3125 1.5625 -5.203125l0 -22.5625q0 -1.828125 1.15625 -2.953125q1.15625 -1.125 2.921875 -1.125zm16.872452 -14.640625q0 -1.75 1.125 -2.875q1.125 -1.125 2.875 -1.125q1.765625 0 2.875 1.125q1.125 1.125 1.125 2.875l0 43.6875q0 2.953125 1.125 4.875q1.125 1.921875 2.875 1.921875l2.0 0q1.609375 0 2.609375 1.125q1.0 1.109375 1.0 2.875q0 1.765625 -1.53125 2.890625q-1.515625 1.109375 -3.90625 1.109375l-0.171875 0q-3.4375 0 -6.203125 -1.875q-2.75 -1.890625 -4.28125 -5.28125q-1.515625 -3.40625 -1.515625 -7.640625l0 -43.6875zm23.999985 0q0 -1.75 1.125 -2.875q1.125 -1.125 2.875 -1.125q1.765625 0 2.875 1.125q1.125 1.125 1.125 2.875l0 43.6875q0 2.953125 1.125 4.875q1.125 1.921875 2.875 1.921875l2.0 0q1.609375 0 2.609375 1.125q1.0 1.109375 1.0 2.875q0 1.765625 -1.53125 2.890625q-1.515625 1.109375 -3.90625 1.109375l-0.171875 0q-3.4375 0 -6.203125 -1.875q-2.75 -1.890625 -4.28125 -5.28125q-1.515625 -3.40625 -1.515625 -7.640625l0 -43.6875zm73.12746 -4.0q5.359375 0 9.515625 2.125q4.15625 2.125 6.515625 5.921875q2.375 3.796875 2.375 8.59375q0 3.921875 -2.125 7.046875q-2.125 3.109375 -5.796875 5.03125q5.4375 1.28125 8.546875 5.125q3.125 3.84375 3.125 9.765625q0 5.4375 -2.609375 9.765625q-2.59375 4.3125 -7.28125 6.71875q-4.671875 2.390625 -10.59375 2.390625l-20.796875 0q-1.75 0 -2.953125 -1.203125q-1.203125 -1.203125 -1.203125 -2.953125l0 -54.15625q0 -1.84375 1.203125 -3.0q1.203125 -1.171875 2.953125 -1.171875l19.125 0zm0 25.6875q4.71875 0 7.5625 -2.3125q2.84375 -2.328125 2.84375 -6.734375q0 -4.390625 -2.84375 -6.671875q-2.84375 -2.28125 -7.5625 -2.28125l-14.96875 0l0 18.0l14.96875 0zm1.671875 29.109375q5.609375 0 9.046875 -2.90625q3.4375 -2.921875 3.4375 -8.28125q0 -4.96875 -3.40625 -7.609375q-3.390625 -2.640625 -9.078125 -2.640625l-16.640625 0l0 21.4375l16.640625 0zm51.933716 -36.390625q6.3125 0 11.3125 2.84375q5.0 2.828125 7.84375 7.875q2.84375 5.046875 2.84375 11.515625q0 6.40625 -2.8125 11.453125q-2.796875 5.03125 -7.796875 7.875q-5.0 2.828125 -11.390625 2.828125q-6.40625 0 -11.453125 -2.828125q-5.03125 -2.84375 -7.84375 -7.875q-2.796875 -5.046875 -2.796875 -11.453125q0 -6.46875 2.796875 -11.515625q2.8125 -5.046875 7.84375 -7.875q5.046875 -2.84375 11.453125 -2.84375zm0 7.203125q-4.09375 0 -7.328125 1.921875q-3.234375 1.90625 -5.078125 5.359375q-1.84375 3.4375 -1.84375 7.75q0 4.328125 1.84375 7.734375q1.84375 3.390625 5.078125 5.3125q3.234375 1.921875 7.328125 1.921875q4.078125 0 7.3125 -1.921875q3.234375 -1.921875 5.03125 -5.3125q1.8125 -3.40625 1.8125 -7.734375q0 -4.3125 -1.8125 -7.75q-1.796875 -3.453125 -5.03125 -5.359375q-3.234375 -1.921875 -7.3125 -1.921875zm71.90619 -25.609375q1.84375 0 2.96875 1.125q1.125 1.125 1.125 2.953125l0 36.484375q0 6.234375 -2.921875 11.328125q-2.921875 5.078125 -7.921875 8.0q-5.0 2.90625 -11.15625 2.90625q-6.171875 0 -11.25 -2.90625q-5.078125 -2.921875 -7.96875 -8.0q-2.875 -5.09375 -2.875 -11.328125q0 -6.234375 2.671875 -11.3125q2.6875 -5.078125 7.375 -7.953125q4.6875 -2.890625 10.4375 -2.890625q4.640625 0 8.640625 1.921875q4.0 1.921875 6.796875 5.359375l0 -21.609375q0 -1.828125 1.15625 -2.953125q1.171875 -1.125 2.921875 -1.125zm-17.90625 55.609375q4.0 0 7.234375 -1.953125q3.234375 -1.96875 5.078125 -5.40625q1.84375 -3.453125 1.84375 -7.6875q0 -4.234375 -1.84375 -7.625q-1.84375 -3.40625 -5.078125 -5.359375q-3.234375 -1.96875 -7.234375 -1.96875q-4.0 0 -7.25 1.96875q-3.234375 1.953125 -5.125 5.359375q-1.875 3.390625 -1.875 7.625q0 4.234375 1.875 7.6875q1.890625 3.4375 5.125 5.40625q3.25 1.953125 7.25 1.953125zm69.83371 -36.484375q2.484375 0.953125 2.484375 3.125q0 0.796875 -0.484375 1.921875l-24.484375 55.03125q-0.953125 2.484375 -3.109375 2.484375q-0.8125 0 -1.921875 -0.484375q-2.40625 -1.03125 -2.40625 -3.125q0 -0.953125 0.484375 -1.90625l8.0 -18.0l-18.0 -34.171875q-0.40625 -0.71875 -0.40625 -1.671875q0 -1.046875 0.640625 -1.921875q0.640625 -0.875 1.6875 -1.359375q0.71875 -0.328125 1.59375 -0.328125q2.234375 0 3.359375 2.25l14.640625 29.109375l12.875 -29.03125q1.046875 -2.328125 3.125 -2.328125q1.046875 0 1.921875 0.40625zm92.32559 -19.125q1.75 0 2.953125 1.203125q1.203125 1.203125 1.203125 2.96875l0 54.15625q0 1.75 -1.25 2.953125q-1.234375 1.203125 -2.90625 1.203125q-1.765625 0 -2.96875 -1.203125q-1.203125 -1.203125 -1.203125 -2.953125l0 -39.765625l-19.359406 39.4375q-1.359375 2.078125 -3.59375 2.078125q-2.640625 0 -3.84375 -2.46875l-19.125 -38.328125l0 39.046875q0 1.75 -1.203125 2.953125q-1.1875 1.203125 -2.953125 1.203125q-1.75 0 -2.953125 -1.203125q-1.203125 -1.203125 -1.203125 -2.953125l0 -54.15625q0 -1.765625 1.203125 -2.96875q1.203125 -1.203125 2.953125 -1.203125q2.40625 0 3.6875 2.25l23.75 47.59375l23.12503 -47.59375q1.28125 -2.25 3.6875 -2.25zm39.20056 18.40625q6.15625 0 11.15625 2.921875q5.0 2.921875 7.921875 8.0q2.921875 5.078125 2.921875 11.3125l0 17.84375q0 1.765625 -1.171875 2.921875q-1.15625 1.15625 -2.921875 1.15625q-1.75 0 -2.921875 -1.15625q-1.15625 -1.15625 -1.15625 -2.921875l0 -2.953125q-2.796875 3.4375 -6.796875 5.359375q-4.0 1.90625 -8.640625 1.90625q-5.75 0 -10.4375 -2.875q-4.6875 -2.875 -7.375 -7.953125q-2.671875 -5.078125 -2.671875 -11.328125q0 -6.234375 2.875 -11.3125q2.890625 -5.078125 7.96875 -8.0q5.078125 -2.921875 11.25 -2.921875zm0 37.203125q4.0 0 7.234375 -1.953125q3.234375 -1.96875 5.078125 -5.359375q1.84375 -3.40625 1.84375 -7.65625q0 -4.234375 -1.84375 -7.671875q-1.84375 -3.4375 -5.078125 -5.390625q-3.234375 -1.96875 -7.234375 -1.96875q-4.0 0 -7.25 1.96875q-3.234375 1.953125 -5.125 5.390625q-1.875 3.4375 -1.875 7.671875q0 4.25 1.875 7.65625q1.890625 3.390625 5.125 5.359375q3.25 1.953125 7.25 1.953125zm49.515503 -37.203125q5.203125 0 9.3125 1.6875q4.125 1.671875 6.53125 4.625q1.03125 1.28125 1.03125 2.5625q0 1.359375 -1.359375 2.484375q-0.875 0.640625 -2.234375 0.640625q-2.078125 0 -3.765625 -1.515625q-2.0 -1.84375 -4.25 -2.59375q-2.234375 -0.765625 -5.421875 -0.765625q-3.6875 0 -6.046875 1.234375q-2.359375 1.234375 -2.359375 3.484375q0 1.59375 0.796875 2.671875q0.796875 1.078125 3.03125 2.0q2.25 0.921875 6.484375 1.796875q8.734375 1.765625 12.359375 4.890625q3.640625 3.109375 3.640625 8.078125q0 3.671875 -2.0 6.671875q-2.0 3.0 -5.875 4.71875q-3.875 1.71875 -9.3125 1.71875q-5.4375 0 -10.25 -1.671875q-4.796875 -1.6875 -7.515625 -4.40625q-1.046875 -1.03125 -1.046875 -2.46875q0 -1.921875 1.609375 -3.125q1.515625 -1.125 2.796875 -1.125q1.59375 0 3.046875 1.4375q1.515625 1.6875 4.546875 2.9375q3.046875 1.234375 6.484375 1.234375q4.5625 0 7.078125 -1.515625q2.53125 -1.53125 2.53125 -4.09375q0 -2.46875 -2.484375 -4.109375q-2.484375 -1.640625 -8.40625 -2.765625q-15.359375 -2.953125 -15.359375 -12.640625q0 -3.921875 2.3125 -6.640625q2.328125 -2.71875 6.078125 -4.078125q3.765625 -1.359375 8.015625 -1.359375zm43.43994 0q5.203125 0 9.3125 1.6875q4.125 1.671875 6.53125 4.625q1.03125 1.28125 1.03125 2.5625q0 1.359375 -1.359375 2.484375q-0.875 0.640625 -2.234375 0.640625q-2.078125 0 -3.765625 -1.515625q-2.0 -1.84375 -4.25 -2.59375q-2.234375 -0.765625 -5.421875 -0.765625q-3.6875 0 -6.046875 1.234375q-2.359375 1.234375 -2.359375 3.484375q0 1.59375 0.796875 2.671875q0.796875 1.078125 3.03125 2.0q2.25 0.921875 6.484375 1.796875q8.734375 1.765625 12.359375 4.890625q3.640625 3.109375 3.640625 8.078125q0 3.671875 -2.0 6.671875q-2.0 3.0 -5.875 4.71875q-3.875 1.71875 -9.3125 1.71875q-5.4375 0 -10.25 -1.671875q-4.796875 -1.6875 -7.515625 -4.40625q-1.046875 -1.03125 -1.046875 -2.46875q0 -1.921875 1.609375 -3.125q1.515625 -1.125 2.796875 -1.125q1.59375 0 3.046875 1.4375q1.515625 1.6875 4.546875 2.9375q3.046875 1.234375 6.484375 1.234375q4.5625 0 7.078125 -1.515625q2.53125 -1.53125 2.53125 -4.09375q0 -2.46875 -2.484375 -4.109375q-2.484375 -1.640625 -8.40625 -2.765625q-15.359375 -2.953125 -15.359375 -12.640625q0 -3.921875 2.3125 -6.640625q2.328125 -2.71875 6.078125 -4.078125q3.765625 -1.359375 8.015625 -1.359375zm47.924316 0q6.15625 0 11.15625 2.921875q5.0 2.921875 7.921875 8.0q2.921875 5.078125 2.921875 11.3125l0 17.84375q0 1.765625 -1.171875 2.921875q-1.15625 1.15625 -2.921875 1.15625q-1.75 0 -2.921875 -1.15625q-1.15625 -1.15625 -1.15625 -2.921875l0 -2.953125q-2.796875 3.4375 -6.796875 5.359375q-4.0 1.90625 -8.640625 1.90625q-5.75 0 -10.4375 -2.875q-4.6875 -2.875 -7.375 -7.953125q-2.671875 -5.078125 -2.671875 -11.328125q0 -6.234375 2.875 -11.3125q2.890625 -5.078125 7.96875 -8.0q5.078125 -2.921875 11.25 -2.921875zm0 37.203125q4.0 0 7.234375 -1.953125q3.234375 -1.96875 5.078125 -5.359375q1.84375 -3.40625 1.84375 -7.65625q0 -4.234375 -1.84375 -7.671875q-1.84375 -3.4375 -5.078125 -5.390625q-3.234375 -1.96875 -7.234375 -1.96875q-4.0 0 -7.25 1.96875q-3.234375 1.953125 -5.125 5.390625q-1.875 3.4375 -1.875 7.671875q0 4.25 1.875 7.65625q1.890625 3.390625 5.125 5.359375q3.25 1.953125 7.25 1.953125zm54.0 -37.203125q6.3125 0 11.3125 2.84375q5.0 2.828125 7.84375 7.875q2.84375 5.046875 2.84375 11.515625l0 17.28125q0 6.328125 -2.8125 11.515625q-2.796875 5.203125 -7.875 8.203125q-5.078125 3.0 -11.484375 3.0q-5.75 0 -10.71875 -2.28125q-4.953125 -2.28125 -8.3125 -6.515625q-0.890625 -1.125 -0.890625 -2.234375q0 -1.6875 1.6875 -2.890625q1.125 -0.71875 2.234375 -0.71875q2.0 0 3.28125 1.6875q2.15625 2.796875 5.4375 4.265625q3.28125 1.484375 7.453125 1.484375q3.90625 0 7.109375 -1.875q3.203125 -1.875 5.125 -5.515625q1.921875 -3.640625 1.921875 -8.6875l0 -3.921875q-2.484375 4.40625 -6.5625 6.890625q-4.078125 2.46875 -9.203125 2.46875q-5.921875 0 -10.609375 -2.828125q-4.671875 -2.84375 -7.28125 -7.875q-2.59375 -5.046875 -2.59375 -11.453125q0 -6.46875 2.796875 -11.515625q2.8125 -5.046875 7.84375 -7.875q5.046875 -2.84375 11.453125 -2.84375zm0 37.203125q4.078125 0 7.3125 -1.921875q3.234375 -1.921875 5.03125 -5.3125q1.8125 -3.40625 1.8125 -7.734375q0 -4.3125 -1.8125 -7.75q-1.796875 -3.453125 -5.03125 -5.359375q-3.234375 -1.921875 -7.3125 -1.921875q-4.09375 0 -7.328125 1.921875q-3.234375 1.90625 -5.078125 5.359375q-1.84375 3.4375 -1.84375 7.75q0 4.328125 1.84375 7.734375q1.84375 3.390625 5.078125 5.3125q3.234375 1.921875 7.328125 1.921875zm73.43738 -15.6875q0 1.515625 -1.046875 2.515625q-1.03125 1.0 -2.640625 1.0l-30.390625 0q0.875 5.609375 5.078125 9.046875q4.203125 3.4375 10.28125 3.4375q2.390625 0 4.984375 -0.875q2.609375 -0.875 4.296875 -2.15625q1.109375 -0.890625 2.640625 -0.890625q1.515625 0 2.390625 0.796875q1.4375 1.203125 1.4375 2.734375q0 1.4375 -1.28125 2.390625q-2.71875 2.15625 -6.765625 3.515625q-4.03125 1.359375 -7.703125 1.359375q-6.5625 0 -11.765625 -2.828125q-5.203125 -2.84375 -8.125 -7.875q-2.921875 -5.046875 -2.921875 -11.453125q0 -6.390625 2.765625 -11.46875q2.765625 -5.09375 7.671875 -7.921875q4.921875 -2.84375 11.171875 -2.84375q6.15625 0 10.640625 2.71875q4.484375 2.71875 6.875 7.609375q2.40625 4.875 2.40625 11.1875zm-19.921875 -14.640625q-5.84375 0 -9.484375 3.203125q-3.640625 3.203125 -4.59375 8.5625l26.640625 0q-0.71875 -5.359375 -4.0 -8.5625q-3.28125 -3.203125 -8.5625 -3.203125zm45.67993 -6.875q5.203125 0 9.3125 1.6875q4.125 1.671875 6.53125 4.625q1.03125 1.28125 1.03125 2.5625q0 1.359375 -1.359375 2.484375q-0.875 0.640625 -2.234375 0.640625q-2.078125 0 -3.765625 -1.515625q-2.0 -1.84375 -4.25 -2.59375q-2.234375 -0.765625 -5.421875 -0.765625q-3.6875 0 -6.046875 1.234375q-2.359375 1.234375 -2.359375 3.484375q0 1.59375 0.796875 2.671875q0.796875 1.078125 3.03125 2.0q2.25 0.921875 6.484375 1.796875q8.734375 1.765625 12.359375 4.890625q3.640625 3.109375 3.640625 8.078125q0 3.671875 -2.0 6.671875q-2.0 3.0 -5.875 4.71875q-3.875 1.71875 -9.3125 1.71875q-5.4375 0 -10.25 -1.671875q-4.796875 -1.6875 -7.515625 -4.40625q-1.046875 -1.03125 -1.046875 -2.46875q0 -1.921875 1.609375 -3.125q1.515625 -1.125 2.796875 -1.125q1.59375 0 3.046875 1.4375q1.515625 1.6875 4.546875 2.9375q3.046875 1.234375 6.484375 1.234375q4.5625 0 7.078125 -1.515625q2.53125 -1.53125 2.53125 -4.09375q0 -2.46875 -2.484375 -4.109375q-2.484375 -1.640625 -8.40625 -2.765625q-15.359375 -2.953125 -15.359375 -12.640625q0 -3.921875 2.3125 -6.640625q2.328125 -2.71875 6.078125 -4.078125q3.765625 -1.359375 8.015625 -1.359375z" fill-rule="nonzero"/></g></svg>