<svg version="1.1" viewBox="0.0 0.0 945.8582677165355 161.62992125984252" fill="none" stroke="none" stroke-linecap="square" stroke-miterlimit="10" xmlns:xlink="http://www.w3.org/1999/xlink" xmlns="http://www.w3.org/2000/svg"><clipPath id="p.0"><path d="m0 0l945.8583 0l0 161.62993l-945.8583 0l0 -161.62993z" clip-rule="nonzero"/></clipPath><g clip-path="url(#p.0)"><path fill="#000000" fill-opacity="0.0" d="m0 0l945.8583 0l0 161.62993l-945.8583 0z" fill-rule="evenodd"/><path fill="#000000" fill-opacity="0.0" d="m0 0l945.8583 0l0 161.6378l-945.8583 0z" fill-rule="evenodd"/><path fill="#ffffff" d="m247.65002 23.31562q9.046875 0 16.078125 4.0q7.046875 4.0 10.953125 11.09375q3.921875 7.078125 3.921875 16.109375q0 9.046875 -3.921875 16.171875q-3.90625 7.109375 -10.953125 11.109375q-7.03125 4.0 -16.078125 4.0l-14.484375 0q-1.75 0 -2.953125 -1.203125q-1.203125 -1.203125 -1.203125 -2.953125l0 -54.15625q0 -1.84375 1.203125 -3.0q1.203125 -1.171875 2.953125 -1.171875l14.484375 0zm0 55.125q6.640625 0 11.875 -3.03125q5.25 -3.046875 8.15625 -8.53125q2.921875 -5.484375 2.921875 -12.359375q0 -6.875 -2.921875 -12.3125q-2.90625 -5.453125 -8.15625 -8.484375q-5.234375 -3.046875 -11.875 -3.046875l-10.328125 0l0 47.765625l10.328125 0zm64.63995 -36.875q4.234375 0 6.640625 1.28125q2.40625 1.265625 2.40625 3.1875q0 0.5625 -0.09375 0.8125q-0.71875 2.546875 -3.1875 2.546875q-0.40625 0 -1.203125 -0.15625q-3.203125 -0.5625 -5.203125 -0.5625q-5.765625 0 -9.28125 2.640625q-3.515625 2.640625 -3.515625 7.125l0 23.359375q0 1.921875 -1.0 2.96875q-1.0 1.03125 -3.0 1.03125q-1.921875 0 -2.96875 -1.0q-1.03125 -1.0 -1.03125 -3.0l0 -35.765625q0 -1.921875 1.03125 -2.953125q1.046875 -1.046875 2.96875 -1.046875q4.0 0 4.0 4.0l0 1.53125q2.390625 -2.8125 5.90625 -4.40625q3.53125 -1.59375 7.53125 -1.59375zm18.239319 4.546875q0 -1.828125 1.15625 -2.953125q1.15625 -1.125 2.921875 -1.125q1.84375 0 2.953125 1.125q1.125 1.125 1.125 2.953125l0 35.609375q0 1.765625 -1.125 2.921875q-1.109375 1.15625 -2.953125 1.15625q-1.765625 0 -2.921875 -1.15625q-1.15625 -1.15625 -1.15625 -2.921875l0 -35.609375zm4.078125 -21.75q2.15625 0 3.71875 1.5625q1.5625 1.5625 1.5625 3.71875q0 2.15625 -1.5625 3.71875q-1.5625 1.5625 -3.71875 1.5625q-2.15625 0 -3.71875 -1.5625q-1.5625 -1.5625 -1.5625 -3.71875q0 -2.15625 1.5625 -3.71875q1.5625 -1.5625 3.71875 -1.5625zm52.95685 18.234375q1.046875 0.484375 1.609375 1.328125q0.5625 0.828125 0.5625 1.875q0 0.71875 -0.40625 1.515625l-16.953125 35.765625q-1.203125 2.640625 -3.6875 2.640625q-1.359375 0 -2.25 -0.59375q-0.875 -0.609375 -1.59375 -2.046875l-16.953125 -35.765625q-0.328125 -0.640625 -0.328125 -1.4375q0 -2.15625 2.25 -3.28125q0.71875 -0.390625 1.671875 -0.390625q0.96875 0 1.84375 0.515625q0.875 0.515625 1.359375 1.484375l13.921875 30.0l13.765625 -30.0q0.46875 -0.96875 1.390625 -1.484375q0.921875 -0.515625 1.96875 -0.515625q1.03125 0 1.828125 0.390625zm49.44934 20.640625q0 1.515625 -1.046875 2.515625q-1.03125 1.0 -2.640625 1.0l-30.390625 0q0.875 5.609375 5.078125 9.046875q4.203125 3.4375 10.28125 3.4375q2.390625 0 4.984375 -0.875q2.609375 -0.875 4.296875 -2.15625q1.109375 -0.890625 2.640625 -0.890625q1.515625 0 2.390625 0.796875q1.4375 1.203125 1.4375 2.734375q0 1.4375 -1.28125 2.390625q-2.71875 2.15625 -6.765625 3.515625q-4.03125 1.359375 -7.703125 1.359375q-6.5625 0 -11.765625 -2.828125q-5.203125 -2.84375 -8.125 -7.875q-2.921875 -5.046875 -2.921875 -11.453125q0 -6.390625 2.765625 -11.46875q2.765625 -5.09375 7.671875 -7.921875q4.921875 -2.84375 11.171875 -2.84375q6.15625 0 10.640625 2.71875q4.484375 2.71875 6.875 7.609375q2.40625 4.875 2.40625 11.1875zm-19.921875 -14.640625q-5.84375 0 -9.484375 3.203125q-3.640625 3.203125 -4.59375 8.5625l26.640625 0q-0.71875 -5.359375 -4.0 -8.5625q-3.28125 -3.203125 -8.5625 -3.203125zm72.401184 29.203125q1.4375 0 2.4375 1.125q1.0 1.109375 1.0 2.875q0 1.765625 -1.328125 2.890625q-1.3125 1.109375 -3.390625 1.109375l-1.4375 0q-3.921875 0 -7.171875 -2.03125q-3.234375 -2.046875 -5.078125 -5.5625q-1.828125 -3.53125 -1.828125 -7.921875l0 -19.765625l-3.6875 0q-1.671875 0 -2.71875 -0.953125q-1.046875 -0.96875 -1.046875 -2.40625q0 -1.59375 1.046875 -2.546875q1.046875 -0.96875 2.71875 -0.96875l3.6875 0l0 -11.53125q0 -1.75 1.109375 -2.875q1.125 -1.125 2.890625 -1.125q1.75 0 2.875 1.125q1.125 1.125 1.125 2.875l0 11.53125l6.796875 0q1.671875 0 2.703125 0.96875q1.046875 0.953125 1.046875 2.546875q0 1.4375 -1.046875 2.40625q-1.03125 0.953125 -2.703125 0.953125l-6.796875 0l0 19.765625q0 3.203125 1.75 5.359375q1.765625 2.15625 4.328125 2.15625l2.71875 0zm33.28308 -36.078125q6.3125 0 11.3125 2.84375q5.0 2.828125 7.84375 7.875q2.84375 5.046875 2.84375 11.515625q0 6.40625 -2.8125 11.453125q-2.796875 5.03125 -7.796875 7.875q-5.0 2.828125 -11.390625 2.828125q-6.40625 0 -11.453125 -2.828125q-5.03125 -2.84375 -7.84375 -7.875q-2.796875 -5.046875 -2.796875 -11.453125q0 -6.46875 2.796875 -11.515625q2.8125 -5.046875 7.84375 -7.875q5.046875 -2.84375 11.453125 -2.84375zm0 7.203125q-4.09375 0 -7.328125 1.921875q-3.234375 1.90625 -5.078125 5.359375q-1.84375 3.4375 -1.84375 7.75q0 4.328125 1.84375 7.734375q1.84375 3.390625 5.078125 5.3125q3.234375 1.921875 7.328125 1.921875q4.078125 0 7.3125 -1.921875q3.234375 -1.921875 5.03125 -5.3125q1.8125 -3.40625 1.8125 -7.734375q0 -4.3125 -1.8125 -7.75q-1.796875 -3.453125 -5.03125 -5.359375q-3.234375 -1.921875 -7.3125 -1.921875zm91.03369 -6.484375q2.484375 0.953125 2.484375 3.125q0 0.796875 -0.484375 1.921875l-24.484375 55.03125q-0.953125 2.484375 -3.109375 2.484375q-0.8125 0 -1.921875 -0.484375q-2.40625 -1.03125 -2.40625 -3.125q0 -0.953125 0.484375 -1.90625l8.0 -18.0l-18.0 -34.171875q-0.40625 -0.71875 -0.40625 -1.671875q0 -1.046875 0.640625 -1.921875q0.640625 -0.875 1.6875 -1.359375q0.71875 -0.328125 1.59375 -0.328125q2.234375 0 3.359375 2.25l14.640625 29.109375l12.875 -29.03125q1.046875 -2.328125 3.125 -2.328125q1.046875 0 1.921875 0.40625zm29.526184 -0.71875q6.3125 0 11.3125 2.84375q5.0 2.828125 7.84375 7.875q2.84375 5.046875 2.84375 11.515625q0 6.40625 -2.8125 11.453125q-2.796875 5.03125 -7.796875 7.875q-5.0 2.828125 -11.390625 2.828125q-6.40625 0 -11.453125 -2.828125q-5.03125 -2.84375 -7.84375 -7.875q-2.796875 -5.046875 -2.796875 -11.453125q0 -6.46875 2.796875 -11.515625q2.8125 -5.046875 7.84375 -7.875q5.046875 -2.84375 11.453125 -2.84375zm0 7.203125q-4.09375 0 -7.328125 1.921875q-3.234375 1.90625 -5.078125 5.359375q-1.84375 3.4375 -1.84375 7.75q0 4.328125 1.84375 7.734375q1.84375 3.390625 5.078125 5.3125q3.234375 1.921875 7.328125 1.921875q4.078125 0 7.3125 -1.921875q3.234375 -1.921875 5.03125 -5.3125q1.8125 -3.40625 1.8125 -7.734375q0 -4.3125 -1.8125 -7.75q-1.796875 -3.453125 -5.03125 -5.359375q-3.234375 -1.921875 -7.3125 -1.921875zm70.234314 -6.96875q1.84375 0 2.953125 1.125q1.125 1.125 1.125 2.953125l0 35.6875q0 1.765625 -1.125 2.921875q-1.109375 1.15625 -2.953125 1.15625q-1.765625 0 -2.921875 -1.15625q-1.15625 -1.15625 -1.15625 -2.921875l0 -0.875q-2.5625 2.546875 -6.09375 3.953125q-3.515625 1.40625 -7.515625 1.40625q-5.515625 0 -9.921875 -2.40625q-4.390625 -2.40625 -6.875 -7.0q-2.484375 -4.59375 -2.484375 -11.078125l0 -19.6875q0 -1.75 1.15625 -2.90625q1.171875 -1.171875 2.9375 -1.171875q1.75 0 2.90625 1.171875q1.171875 1.15625 1.171875 2.90625l0 19.6875q0 6.484375 3.46875 9.8125q3.484375 3.3125 9.25 3.3125q3.359375 0 6.109375 -1.359375q2.765625 -1.375 4.328125 -3.6875q1.5625 -2.3125 1.5625 -5.203125l0 -22.5625q0 -1.828125 1.15625 -2.953125q1.15625 -1.125 2.921875 -1.125z" fill-rule="nonzero"/></g></svg>